<svg id="Layer_1" data-name="Layer 1" xmlns="http://www.w3.org/2000/svg" viewBox="0 0 1080 1080"><defs><style>.cls-1{fill:#fff;}</style></defs><title>creativity logo blanco-22</title><path class="cls-1" d="M1079.66,547.73c0,251.13-171.55,462.18-404,522.29a818.52,818.52,0,0,0,8-115.16,821,821,0,0,0-8-115.26C786.36,788.07,863,676,863,545.92c0-103.81-48.86-196.17-124.71-255.43a324,324,0,0,0-393.77-3.43c-78.43,59.16-129.1,153-129.1,258.86,0,133.38,80.63,248,195.89,297.49a826.31,826.31,0,0,0-7.54,111.45,817.46,817.46,0,0,0,8.3,117.07C175.81,1014.59.34,801.62.34,547.73a537.83,537.83,0,0,1,144.94-368C243.84,74.1,384.19,8.07,540,8.07,696.77,8.07,838,75,936.54,181.82A537.08,537.08,0,0,1,1079.66,547.73Z"/></svg>